<?xml version="1.0" encoding="UTF-8"?>
<svg width="300px" height="300px" viewBox="0 0 300 300" version="1.1" xmlns="http://www.w3.org/2000/svg" xmlns:xlink="http://www.w3.org/1999/xlink">
    <!-- Generator: Sketch 63.1 (92452) - https://sketch.com -->
    <title>Shape</title>
    <desc>Created with Sketch.</desc>
    <g id="Page-1" stroke="none" stroke-width="1" fill="none" fill-rule="evenodd">
        <g id="react" fill="#E6E6E6">
            <path d="M127.407788,149.524897 C127.407788,137.102044 137.502213,127.031582 149.954625,127.031582 C162.4025,127.031582 172.495413,137.102044 172.495413,149.524897 C172.495413,161.94775 162.4025,172.018212 149.954625,172.018212 C137.502212,172.018212 127.407788,161.94775 127.407788,149.524897 M231.246962,174.421905 C227.001375,176.243159 222.368587,177.872781 217.583037,179.390744 C214.769787,169.748812 211.070212,159.710037 206.481287,149.4238 C211.018787,139.188866 214.6745,129.199885 217.431787,119.607747 C222.129319,121.060417 226.754754,122.7357 231.292337,124.627889 C248.755662,132.051724 260.054037,141.79928 260.054037,149.524897 C260.004125,157.250514 248.710287,167.043337 231.246962,174.421905 M205.050462,244.551496 C203.568212,245.435717 201.651875,245.828033 199.378587,245.828033 C189.169212,245.828033 174.023037,237.7101 157.945162,222.898643 C165.289933,215.186632 172.096966,206.982126 178.318537,198.342649 C189.465662,197.161173 200.018375,195.335392 209.687787,192.931699 C210.822162,197.896012 211.71,202.668693 212.2545,207.251251 C214.573162,226.046229 211.71,240.663036 205.050462,244.551496 M150.101337,215.22282 C145.512412,210.495407 140.929537,205.229312 136.3875,199.474331 C140.829713,199.670489 145.367212,199.816853 149.954625,199.816853 C154.593463,199.816853 159.176337,199.715757 163.662413,199.474331 C159.430205,204.964095 154.903224,210.221283 150.101338,215.22282 M100.824088,246.075495 C98.6007125,246.030227 96.72975,245.586608 95.2475,244.747654 C88.5425875,240.908988 85.6325375,226.29369 87.89675,207.492677 C88.44125,202.864851 89.3290875,197.9956 90.4120375,193.02676 C100.082963,195.385186 110.640213,197.20644 121.735913,198.393952 C128.396963,207.492677 135.2985,215.761501 142.256,222.993705 C126.178125,237.906258 111.083375,246.075495 100.824088,246.075495 M82.5228375,179.442047 C77.8373725,177.997688 73.2266435,176.322247 68.7076625,174.421905 C51.248875,166.99807 39.9505,157.250514 39.9505,149.524897 C39.9505,141.79928 51.248875,132.006457 68.7076625,124.627889 C72.95325,122.806635 77.5860375,121.177013 82.3715875,119.65905 C85.1848375,129.300982 88.8844125,139.339757 93.477875,149.625994 C88.9358375,159.860928 85.2846625,169.849909 82.5228375,179.442047 M94.9555875,54.4982981 C96.4317875,53.6140771 98.3526625,53.2217606 100.627462,53.2217606 L100.627462,53.1704577 C110.836837,53.1704577 125.9815,61.2883912 142.059375,76.1013566 C134.715864,83.8139492 127.908901,92.0178651 121.686,100.655842 C110.538875,101.843354 99.9861625,103.664608 90.31675,106.068301 C89.2291613,101.35617 88.372573,96.5939271 87.7500375,91.798543 C85.431375,73.0035652 88.2945375,58.3867581 94.9555875,54.4982981 M163.567125,99.575463 C159.124912,99.3793048 154.593462,99.2329405 150,99.2329405 C145.367212,99.2329405 140.77375,99.3340375 136.292212,99.575463 C140.525904,94.0869029 145.052818,88.8297935 149.853287,83.8269737 C154.442212,88.5543874 159.025087,93.8204819 163.567125,99.575463 M193.661337,124.326107 C191.386537,120.39238 188.972587,116.550696 186.552587,112.813127 C193.56,113.843712 200.316337,115.126285 206.77925,116.706114 C204.953662,123.048061 202.684912,129.592201 200.119712,136.140869 C198.08006,132.142103 195.926391,128.202244 193.661337,124.326107 M193.706712,174.572796 C195.975462,170.634542 198.0975,166.651021 200.119712,162.712767 C202.781712,169.311228 205.050462,175.900637 206.925962,182.298413 C200.217006,183.927828 193.435048,185.242027 186.6025,186.236667 C189.0225,182.449304 191.437962,178.556317 193.706712,174.572796 M105.608125,149.671261 C108.663375,143.081853 112.122462,136.483391 115.8175,130.040348 C119.663787,123.39511 123.611413,117.09843 127.710288,111.239334 C135.0565,110.599556 142.502538,110.252507 150,110.252507 C157.452087,110.252507 164.902662,110.599556 172.198962,111.188031 C176.432535,117.258225 180.415257,123.498767 184.137125,129.893983 C187.838189,136.270453 191.261148,142.803595 194.396412,149.475103 C191.257971,156.153873 187.852105,162.704292 184.187037,169.110543 C180.34075,175.754272 176.393125,182.052461 172.29425,187.911557 C164.948037,188.549826 157.502,188.892348 150,188.892348 C142.553963,188.892348 135.101875,188.549826 127.807087,187.961351 C123.575279,181.891736 119.59211,175.653298 115.867413,169.261434 C112.166716,162.881675 108.743768,156.345534 105.608125,149.671261 M93.0286625,116.706114 C99.7432084,115.114358 106.524137,113.815462 113.352125,112.813127 C110.932125,116.60049 108.516662,120.493477 106.247912,124.476998 C104.018926,128.363705 101.880683,132.301511 99.8349125,136.287233 C97.2475317,129.874794 94.9760682,123.339948 93.0286625,116.706114 M106.299337,174.723687 C108.584355,178.611427 110.952463,182.449965 113.402037,186.236667 C106.394625,185.206082 99.6382875,183.923509 93.175375,182.348207 C95.0009625,176.001733 97.2697125,169.457593 99.8349125,162.908925 C101.861662,166.847179 103.985212,170.785433 106.299337,174.723687 M199.136587,52.9742994 L199.136587,53.0195667 C201.405337,53.0195667 203.224875,53.4631861 204.757037,54.3021398 C211.463462,58.1408058 214.372,72.7561041 212.107787,91.5571175 C211.55875,96.1849432 210.676962,101.054194 209.5925,106.023034 C199.923087,103.664608 189.365837,101.843354 178.268625,100.655842 C171.609087,91.5571175 164.7015,83.288293 157.748537,76.0560893 C173.802212,61.1676785 188.87125,53.0044776 199.136587,52.9742994 M271,149.524897 C271,133.530455 250.924588,118.376476 220.14975,108.97597 C227.247913,77.681185 224.092838,52.7781412 210.182375,44.8065718 C206.986462,42.9460863 203.255125,42.0603564 199.181962,42.049794 L199.181962,42 C185.619375,42 167.858087,51.646459 149.904712,68.3757395 C131.945288,51.7475559 114.188537,42.1961582 100.627462,42.1961582 L100.627462,42.2459523 C96.4832125,42.2459523 92.7322125,43.1316822 89.4803375,45.0027301 C75.6197875,52.9742994 72.5100875,77.8260403 79.6581625,109.025764 C48.980125,118.471538 29,133.580249 29,149.524897 C29,165.519339 49.0814625,180.673318 79.8547875,190.073824 C72.756625,221.368609 75.9132125,246.271653 89.8221625,254.243222 C93.0286625,256.11427 96.7796625,257 100.919375,257 C114.4865,257 132.24325,247.352032 150.201162,230.62426 C168.154538,247.256971 185.911287,256.803842 199.478412,256.803842 C203.618125,256.803842 207.369125,255.918112 210.625538,254.047064 C224.486087,246.075495 227.595788,221.223754 220.441662,190.02403 C251.024413,180.62805 271,165.469545 271,149.524897" id="Shape"></path>
        </g>
    </g>
</svg>